<svg xmlns="http://www.w3.org/2000/svg" viewBox="0 0 256 251.61142857142858" clip-path="url(#clip)" width="512" height="503.22285714285715"><defs><clippath id="clip" clipPathUnits="objectBoundingBox"><rect x="0" y="0" width="256" height="251.61142857142858"></rect></clippath></defs><rect x="0" y="0" width="256" height="251.61142857142858" fill="rgb(244, 244, 244)"></rect><path d="M294,306L-46,246L160,-130Z" fill="rgb(108, 89, 81)" fill-opacity="0.96"></path><path d="M85,-56L135,166L-124,102Z" fill="rgb(193, 185, 160)" fill-opacity="0.79"></path><path d="M194,46L154,3L149,49Z" fill="rgb(255, 255, 196)" fill-opacity="0.52"></path><path d="M209,-62L204,146L402,204Z" fill="rgb(211, 202, 183)" fill-opacity="1.00"></path><path d="M-4,130L85,156L55,227Z" fill="rgb(10, 13, 42)" fill-opacity="0.54"></path><path d="M226,-15L164,-8L213,60Z" fill="rgb(78, 88, 88)" fill-opacity="0.60"></path><path d="M62,18L160,89L77,88Z" fill="rgb(153, 134, 113)" fill-opacity="1.00"></path><path d="M215,82L150,42L92,528Z" fill="rgb(21, 0, 15)" fill-opacity="0.52"></path><path d="M375,246L120,275L245,150Z" fill="rgb(43, 20, 20)" fill-opacity="0.73"></path><path d="M19,130L-53,23L145,118Z" fill="rgb(228, 222, 202)" fill-opacity="0.56"></path><path d="M214,148L130,136L187,210Z" fill="rgb(53, 34, 39)" fill-opacity="0.88"></path><path d="M13,268L9,141L-108,107Z" fill="rgb(182, 177, 154)" fill-opacity="0.91"></path><path d="M154,96L141,136L74,80Z" fill="rgb(187, 127, 110)" fill-opacity="0.60"></path><path d="M18,230L39,224L29,204Z" fill="rgb(232, 235, 196)" fill-opacity="0.42"></path><path d="M201,57L235,147L327,-8Z" fill="rgb(255, 248, 232)" fill-opacity="0.52"></path><path d="M157,52L188,32L138,21Z" fill="rgb(235, 212, 164)" fill-opacity="0.41"></path><path d="M107,131L108,260L165,187Z" fill="rgb(45, 3, 7)" fill-opacity="0.39"></path><path d="M120,107L133,118L133,89Z" fill="rgb(113, 41, 53)" fill-opacity="0.60"></path><path d="M52,251L200,209L99,159Z" fill="rgb(73, 42, 40)" fill-opacity="0.89"></path><path d="M126,165L94,151L60,160Z" fill="rgb(131, 100, 86)" fill-opacity="0.63"></path><path d="M189,78L119,66L135,41Z" fill="rgb(32, 24, 38)" fill-opacity="0.57"></path><path d="M229,162L293,141L187,130Z" fill="rgb(196, 176, 141)" fill-opacity="0.77"></path><path d="M343,114L195,148L213,81Z" fill="rgb(255, 255, 240)" fill-opacity="0.37"></path><path d="M117,128L99,201L128,170Z" fill="rgb(126, 82, 69)" fill-opacity="0.66"></path><path d="M85,54L72,48L80,87Z" fill="rgb(28, 53, 56)" fill-opacity="0.39"></path><path d="M296,34L175,-68L209,21Z" fill="rgb(154, 147, 119)" fill-opacity="0.51"></path><path d="M19,236L34,237L32,272Z" fill="rgb(213, 207, 171)" fill-opacity="0.63"></path><path d="M39,207L20,208L30,233Z" fill="rgb(186, 178, 152)" fill-opacity="0.59"></path><path d="M10,150L4,131L66,127Z" fill="rgb(54, 58, 70)" fill-opacity="0.51"></path><path d="M116,74L146,70L123,100Z" fill="rgb(254, 212, 177)" fill-opacity="0.53"></path><path d="M210,73L208,118L164,46Z" fill="rgb(54, 65, 80)" fill-opacity="0.54"></path><path d="M-28,21L66,58L73,127Z" fill="rgb(213, 209, 190)" fill-opacity="0.85"></path><path d="M29,138L116,131L102,155Z" fill="rgb(230, 221, 194)" fill-opacity="0.54"></path><path d="M67,272L95,238L125,232Z" fill="rgb(234, 166, 116)" fill-opacity="0.61"></path><path d="M8,150L-18,282L16,203Z" fill="rgb(186, 179, 154)" fill-opacity="0.83"></path><path d="M78,176L54,256L37,255Z" fill="rgb(161, 85, 47)" fill-opacity="0.58"></path><path d="M38,245L55,225L40,200Z" fill="rgb(26, 25, 47)" fill-opacity="0.55"></path><path d="M143,20L93,-36L79,12Z" fill="rgb(88, 82, 70)" fill-opacity="0.51"></path><path d="M152,237L101,226L159,354Z" fill="rgb(133, 70, 48)" fill-opacity="0.80"></path><path d="M224,44L200,12L204,34Z" fill="rgb(180, 175, 158)" fill-opacity="0.63"></path><path d="M203,158L107,187L189,112Z" fill="rgb(46, 35, 47)" fill-opacity="0.66"></path><path d="M150,78L109,74L137,91Z" fill="rgb(238, 187, 156)" fill-opacity="0.51"></path><path d="M165,211L148,258L241,148Z" fill="rgb(127, 67, 43)" fill-opacity="0.54"></path><path d="M44,187L32,218L14,150Z" fill="rgb(142, 161, 152)" fill-opacity="0.33"></path><path d="M260,172L263,155L194,161Z" fill="rgb(89, 72, 68)" fill-opacity="0.68"></path><path d="M137,133L113,111L103,157Z" fill="rgb(171, 135, 114)" fill-opacity="0.66"></path><path d="M14,183L30,137L15,222Z" fill="rgb(52, 50, 65)" fill-opacity="0.78"></path><path d="M180,248L216,240L208,218Z" fill="rgb(121, 71, 52)" fill-opacity="0.64"></path><path d="M73,39L-44,22L85,-1Z" fill="rgb(180, 173, 148)" fill-opacity="0.83"></path><path d="M118,34L120,8L111,45Z" fill="rgb(255, 222, 161)" fill-opacity="0.47"></path><path d="M118,34L120,8L111,45Z" fill="rgb(255, 222, 161)" fill-opacity="0.47"></path></svg>