<svg xmlns="http://www.w3.org/2000/svg" viewBox="0 0 256 251.58620689655172"><filter id="c"><feGaussianBlur stdDeviation="35" /></filter><path fill="#F4F4F4" d="M0 0h256v251.6H0z"/><g filter='url(#c)' fill-opacity='.5'><path d="M121 524L404-49l-528 81z" fill="#69554A" fill-opacity=".8"/><path d="M-26 136L5-25l114 145z" fill="#F2F4DA" fill-opacity=".7"/><path d="M120 529l92-452-70-36z" fill="#362027" fill-opacity=".8"/><path d="M308 159L8 150l154 307z" fill="#442928" fill-opacity=".9"/><path d="M118 31l14 129L-12-59z" fill="#B2A287" fill-opacity=".8"/><path d="M237-82l-38 225 96 23z" fill="#FDF6DE" fill-opacity=".7"/><path d="M155 239l224 42-146-113z" fill="#392322"/><path d="M118 129l-94 9 78 21z" fill="#EBE4C6" fill-opacity=".6"/><path d="M153 2l39 44-40 3z" fill="#FFEFB3" fill-opacity=".6"/><path d="M31 234l30 19-20-38z" fill="#472525" fill-opacity=".5"/><path d="M31 234l30 19-20-38z" fill="#472525" fill-opacity=".5"/></g></svg>