<svg xmlns="http://www.w3.org/2000/svg" viewBox="0 0 256 251.52"><filter id="c"><feGaussianBlur stdDeviation="55" /></filter><path fill="#F4F4F4" d="M0 0h256v251.5H0z"/><g filter='url(#c)' fill-opacity='.5'><path d="M162-111l134 409-374-19z" fill="#6D5A52"/><path d="M-47 130l182 27-66-282z" fill="#C0B7A0" fill-opacity=".8"/><path d="M206 67l-63-22 6 777z" fill="#3D282D" fill-opacity=".9"/><path d="M203 145l122 34L220-92z" fill="#D7CEBA"/><path d="M197 149l-5-119 22 58z" fill="#5D6161" fill-opacity=".7"/><path d="M67 265l82-75-156-67z" fill="#2E161F" fill-opacity=".6"/><path d="M230-13l-18 71-67-87z" fill="#575F5B" fill-opacity=".7"/><path d="M37 3l-65-18-7 40z" fill="#F2EBD8"/><path d="M83 154l-44-10 1 65z" fill="#313044" fill-opacity=".8"/><path d="M-31 445L3 97l12 119z" fill="#BDB9A2" fill-opacity=".8"/><path d="M-31 445L3 97l12 119z" fill="#BDB9A2" fill-opacity=".8"/></g></svg>