<svg xmlns="http://www.w3.org/2000/svg" viewBox="0 0 256 251.52"><filter id="c"><feGaussianBlur stdDeviation="35" /></filter><path fill="#F4F4F4" d="M0 0h256v251.5H0z"/><g filter='url(#c)' fill-opacity='.5'><path d="M163-132L-62 272l341-9z" fill="#3C2217" fill-opacity=".7"/><path d="M408 212L211-98l-8 243z" fill="#D3CAB6"/><path d="M160 113L-7 143 7-97z" fill="#C0B69E" fill-opacity=".8"/><path d="M122 317l24-275 72 44z" fill="#0C000C" fill-opacity=".5"/><path d="M101 156l46 64-95 34z" fill="#260000" fill-opacity=".5"/><path d="M205 90l71 72-26-98z" fill="#FFFAEE" fill-opacity=".6"/><path d="M15 13l23 132 104 11z" fill="#DEDBC6" fill-opacity=".6"/><path d="M148 50l44-4-38-56z" fill="#F4E7B0" fill-opacity=".6"/><path d="M109 150l103 250 72-241z" fill="#3D2322" fill-opacity=".8"/><path d="M-6 127l58 102 34-72z" fill="#11132F" fill-opacity=".6"/><path d="M-6 127l58 102 34-72z" fill="#11132F" fill-opacity=".6"/></g></svg>